<svg id="Layer_1" data-name="Layer 1" xmlns="http://www.w3.org/2000/svg" viewBox="0 0 782.25 728.31"><defs><style>.cls-1{fill:#f15a24;}.cls-2{fill:#0062c6;}</style></defs><text x="-87.15" y="-100.45"/><path class="cls-1" d="M200.2,814.93,98.2,410.52h123l26.4,151.2c8.4,48,17.4,103.81,24,142.81h1.2c6.6-44.4,15-94.21,24-144.61l26.4-149.4H452.8l25.8,159c7.8,47.4,12.6,87.61,18.6,131.41h1.2c6-43.8,14.4-93,22.8-141l27-149.4h116.4L554.21,814.93H429.4l-30.6-176.4c-6-35.4-11.4-70.21-16.2-117h-1.2c-6.6,46.8-11.4,82.2-18.6,117.61l-33.6,175.8Z" transform="translate(-87.15 -100.45)"/><path class="cls-2" d="M579,708.76C606,722,649.2,737,695.4,737c37.8,0,57-12,57-32.4,0-17.4-18.6-28.8-67.8-42.6-69-19.2-126-54.6-126-124.8,0-73.2,66-127.2,171-127.2,55.2,0,92.4,9.6,123.6,22.8l-25.8,88.8c-19.2-7.8-53.4-21-99.6-21-33.6,0-52.8,10.8-52.8,28.2,0,21.6,25.8,28.8,78.6,45.6,78.6,25.2,115.8,63,115.8,124.2,0,67.8-53.4,130.2-182.4,130.2-53.4,0-105.6-14.4-131.4-27.6Z" transform="translate(-87.15 -100.45)"/></svg>